<mxfile host="app.diagrams.net" agent="Mozilla/5.0 (Windows NT 10.0; Win64; x64) AppleWebKit/537.36 (KHTML, like Gecko) Chrome/129.0.0.0 Safari/537.36" version="24.7.6">
  <diagram name="Page-1" id="b5b7bab2-c9e2-2cf4-8b2a-24fd1a2a6d21">
    <mxGraphModel dx="1800" dy="697" grid="1" gridSize="10" guides="1" tooltips="1" connect="1" arrows="1" fold="1" page="1" pageScale="1" pageWidth="827" pageHeight="1169" background="none" math="0" shadow="0">
      <root>
        <mxCell id="0" />
        <mxCell id="1" parent="0" />
        <mxCell id="KrtdTi9DkQBysrgYMJUX-14" value="" style="verticalLabelPosition=bottom;verticalAlign=top;html=1;shape=process;whiteSpace=wrap;rounded=1;size=0.03333333333333333;arcSize=6;container=1;collapsible=1;editable=1;movable=1;resizable=1;rotatable=1;deletable=1;locked=0;connectable=1;recursiveResize=0;" vertex="1" parent="1">
          <mxGeometry x="10" y="10" width="711" height="190" as="geometry">
            <mxRectangle x="30" y="30" width="50" height="40" as="alternateBounds" />
          </mxGeometry>
        </mxCell>
        <mxCell id="KrtdTi9DkQBysrgYMJUX-24" style="edgeStyle=orthogonalEdgeStyle;rounded=0;orthogonalLoop=1;jettySize=auto;html=1;" edge="1" parent="KrtdTi9DkQBysrgYMJUX-14" source="KrtdTi9DkQBysrgYMJUX-17" target="KrtdTi9DkQBysrgYMJUX-23">
          <mxGeometry relative="1" as="geometry" />
        </mxCell>
        <mxCell id="KrtdTi9DkQBysrgYMJUX-27" value="NÃ£o" style="edgeLabel;html=1;align=center;verticalAlign=middle;resizable=0;points=[];" vertex="1" connectable="0" parent="KrtdTi9DkQBysrgYMJUX-24">
          <mxGeometry x="-0.0444" y="-3" relative="1" as="geometry">
            <mxPoint as="offset" />
          </mxGeometry>
        </mxCell>
        <mxCell id="KrtdTi9DkQBysrgYMJUX-26" style="edgeStyle=orthogonalEdgeStyle;rounded=0;orthogonalLoop=1;jettySize=auto;html=1;entryX=0;entryY=0.5;entryDx=0;entryDy=0;" edge="1" parent="KrtdTi9DkQBysrgYMJUX-14" source="KrtdTi9DkQBysrgYMJUX-17" target="KrtdTi9DkQBysrgYMJUX-25">
          <mxGeometry relative="1" as="geometry">
            <Array as="points">
              <mxPoint x="315" y="135" />
            </Array>
          </mxGeometry>
        </mxCell>
        <mxCell id="KrtdTi9DkQBysrgYMJUX-28" value="Sim" style="edgeLabel;html=1;align=center;verticalAlign=middle;resizable=0;points=[];" vertex="1" connectable="0" parent="KrtdTi9DkQBysrgYMJUX-26">
          <mxGeometry x="0.3186" y="-1" relative="1" as="geometry">
            <mxPoint as="offset" />
          </mxGeometry>
        </mxCell>
        <mxCell id="KrtdTi9DkQBysrgYMJUX-17" value="Sucesso?" style="strokeWidth=2;html=1;shape=mxgraph.flowchart.decision;whiteSpace=wrap;" vertex="1" parent="KrtdTi9DkQBysrgYMJUX-14">
          <mxGeometry x="280" y="31.25" width="70" height="57.5" as="geometry" />
        </mxCell>
        <mxCell id="KrtdTi9DkQBysrgYMJUX-16" value="Atividade 1" style="rounded=1;whiteSpace=wrap;html=1;absoluteArcSize=1;arcSize=14;strokeWidth=2;" vertex="1" parent="KrtdTi9DkQBysrgYMJUX-14">
          <mxGeometry x="130" y="30" width="90" height="60" as="geometry" />
        </mxCell>
        <mxCell id="KrtdTi9DkQBysrgYMJUX-18" value="" style="edgeStyle=orthogonalEdgeStyle;rounded=0;orthogonalLoop=1;jettySize=auto;html=1;" edge="1" parent="KrtdTi9DkQBysrgYMJUX-14" source="KrtdTi9DkQBysrgYMJUX-16" target="KrtdTi9DkQBysrgYMJUX-17">
          <mxGeometry relative="1" as="geometry" />
        </mxCell>
        <mxCell id="KrtdTi9DkQBysrgYMJUX-22" style="edgeStyle=orthogonalEdgeStyle;rounded=0;orthogonalLoop=1;jettySize=auto;html=1;" edge="1" parent="KrtdTi9DkQBysrgYMJUX-14" source="KrtdTi9DkQBysrgYMJUX-15" target="KrtdTi9DkQBysrgYMJUX-16">
          <mxGeometry relative="1" as="geometry" />
        </mxCell>
        <mxCell id="KrtdTi9DkQBysrgYMJUX-15" value="" style="strokeWidth=2;html=1;shape=mxgraph.flowchart.start_1;whiteSpace=wrap;fillColor=#d5e8d4;strokeColor=#82b366;" vertex="1" parent="KrtdTi9DkQBysrgYMJUX-14">
          <mxGeometry x="40" y="40" width="40" height="40" as="geometry" />
        </mxCell>
        <mxCell id="KrtdTi9DkQBysrgYMJUX-23" value="Atividade 2" style="rounded=1;whiteSpace=wrap;html=1;absoluteArcSize=1;arcSize=14;strokeWidth=2;" vertex="1" parent="KrtdTi9DkQBysrgYMJUX-14">
          <mxGeometry x="411" y="35" width="90" height="50" as="geometry" />
        </mxCell>
        <mxCell id="KrtdTi9DkQBysrgYMJUX-25" value="Atividade 3" style="rounded=1;whiteSpace=wrap;html=1;absoluteArcSize=1;arcSize=14;strokeWidth=2;" vertex="1" parent="KrtdTi9DkQBysrgYMJUX-14">
          <mxGeometry x="412" y="110" width="89" height="50" as="geometry" />
        </mxCell>
        <mxCell id="KrtdTi9DkQBysrgYMJUX-29" value="" style="verticalLabelPosition=bottom;verticalAlign=top;html=1;shape=mxgraph.flowchart.on-page_reference;fillColor=#f8cecc;strokeColor=#b85450;" vertex="1" parent="KrtdTi9DkQBysrgYMJUX-14">
          <mxGeometry x="621" y="70" width="39" height="40" as="geometry" />
        </mxCell>
        <mxCell id="KrtdTi9DkQBysrgYMJUX-30" style="edgeStyle=orthogonalEdgeStyle;rounded=0;orthogonalLoop=1;jettySize=auto;html=1;entryX=0;entryY=0.5;entryDx=0;entryDy=0;entryPerimeter=0;" edge="1" parent="KrtdTi9DkQBysrgYMJUX-14" source="KrtdTi9DkQBysrgYMJUX-23" target="KrtdTi9DkQBysrgYMJUX-29">
          <mxGeometry relative="1" as="geometry" />
        </mxCell>
        <mxCell id="KrtdTi9DkQBysrgYMJUX-31" style="edgeStyle=orthogonalEdgeStyle;rounded=0;orthogonalLoop=1;jettySize=auto;html=1;entryX=0;entryY=0.5;entryDx=0;entryDy=0;entryPerimeter=0;" edge="1" parent="KrtdTi9DkQBysrgYMJUX-14" source="KrtdTi9DkQBysrgYMJUX-25" target="KrtdTi9DkQBysrgYMJUX-29">
          <mxGeometry relative="1" as="geometry" />
        </mxCell>
        <mxCell id="KrtdTi9DkQBysrgYMJUX-32" value="Atividade 1" style="verticalLabelPosition=bottom;verticalAlign=top;html=1;shape=process;whiteSpace=wrap;rounded=1;size=0.041666666666666664;arcSize=4;horizontal=1;" vertex="1" parent="1">
          <mxGeometry x="10" y="230" width="720" height="230" as="geometry" />
        </mxCell>
        <mxCell id="KrtdTi9DkQBysrgYMJUX-38" value="" style="strokeWidth=2;html=1;shape=mxgraph.flowchart.start_1;whiteSpace=wrap;fillColor=#d5e8d4;strokeColor=#82b366;" vertex="1" parent="1">
          <mxGeometry x="60" y="250" width="30" height="30" as="geometry" />
        </mxCell>
      </root>
    </mxGraphModel>
  </diagram>
</mxfile>
